<?xml version="1.0" encoding="UTF-8" standalone="no"?>
<!-- Created with Inkscape (http://www.inkscape.org/) -->

<svg
   width="360.84427mm"
   height="466.19519mm"
   viewBox="0 0 360.84426 466.19519"
   version="1.1"
   id="svg1"
   xml:space="preserve"
   xmlns="http://www.w3.org/2000/svg"
   xmlns:svg="http://www.w3.org/2000/svg"><defs
     id="defs1" /><g
     id="layer1"
     transform="translate(907.98211,1761.6157)"><g
       id="g5"
       transform="translate(18.117796,-2.5882565)"><path
         style="opacity:1;fill:#002868;fill-opacity:1;stroke-width:0.493316"
         d="m -799.01771,-1296.8157 c -11.5759,-5.2656 -43.8403,-26.757 -61.3686,-40.8778 -17.1173,-13.7897 -35.4462,-30.7264 -35.4462,-32.7537 0,-1.4948 6.1117,-8.6896 62.1685,-73.1861 l 32.2411,-37.095 45.7964,-0.8431 45.7964,-0.843 3.3478,4.5313 c 4.0093,5.4266 10.6947,8.4519 18.6772,8.4519 16.0551,0 27.9746,-19.4983 20.6172,-33.7262 -8.1052,-15.6736 -26.7985,-17.4499 -38.5957,-3.6676 l -5.7401,6.7061 h -36.6523 c -20.1588,0 -36.3994,-0.6375 -36.0903,-1.4167 0.3092,-0.7792 7.0115,-9.1039 14.8943,-18.4994 l 14.3321,-17.0828 44.4278,-0.048 44.4277,-0.048 4.5882,4.9117 c 2.5381,2.717 7.8989,5.8031 11.9978,6.9068 6.3703,1.7153 8.4823,1.5567 15.0574,-1.1312 23.2153,-9.4906 15.9678,-44.4107 -9.2136,-44.3927 -7.0534,0 -14.8243,4.0457 -19.3699,10.0719 -2.5162,3.3359 -3.9819,3.4529 -37.7621,3.0137 l -35.1442,-0.4569 13.4906,-16.0184 c 7.4198,-8.8101 18.4901,-21.7091 24.6008,-28.6644 6.1106,-6.9553 11.1285,-13.0254 11.1508,-13.4891 0.022,-0.4637 -12.9441,-0.588 -28.8145,-0.2764 -23.7364,0.4662 -28.615,0.1671 -27.5007,-1.6861 0.745,-1.239 17.9811,-23.8313 38.3026,-50.205 20.3214,-26.3736 38.8159,-49.6374 37.6972,-49.9045 -5.801,-1.3852 -22.9785,-3.2411 -27.5992,-4.4361 -36.7562,46.1923 -56.2031,73.8236 -96.9983,125.0556 l 15.8016,0.2509 c 12.6256,0.2004 41.1152,1.1084 43.232,1.3777 0.9243,0.1177 -87.2917,103.8418 -136.1864,160.1276 -19.0112,21.8851 -37.0802,42.814 -40.1532,46.5089 l -5.5874,6.7178 c 11.226,-26.2134 58.0301,-131.5383 63.798,-145.4296 l 3.6755,-8.8522 h -39.4892 -39.4893 c 61.1203,-84.047 110.75,-140.3773 175.6461,-221.8136 0,0 130.6834,14.2084 176.56391,25.6991 10.1511,2.5423 8.5408,4.7282 8.5408,81.4397 0,74.4392 -1.0484,92.8672 -6.9554,122.2624 -16.3111,81.1684 -69.98741,151.7759 -161.91731,212.9911 -37.3829,24.893 -47.1049,27.8667 -64.7959,19.8196 z m 104.6023,-188.8944 c -4.785,-4.7849 -5.213,-8.7525 -1.5139,-14.0337 4.6269,-6.6058 16.2923,-4.164 18.2988,3.8303 1.0792,4.3003 -1.2523,10.7254 -4.7362,13.0517 -3.4943,2.3332 -7.9115,1.289 -12.0487,-2.8483 z m 44.2382,-53.952 c -8.9352,-8.9352 -0.673,-22.4707 10.8124,-17.7133 6.048,2.5052 8.0504,8.9319 4.6691,14.9861 -2.9158,5.2208 -11.4794,6.7293 -15.4815,2.7272 z"
         id="path1" /></g></g></svg>
